<?xml version="1.0" encoding="UTF-8"?>
<svg xmlns="http://www.w3.org/2000/svg" xmlns:xlink="http://www.w3.org/1999/xlink" width="48px" height="48px" viewBox="0 0 48 48" version="1.1">
<g id="surface202472">
<path style=" stroke:none;fill-rule:nonzero;fill:rgb(37.647059%,49.019608%,54.509804%);fill-opacity:1;" d="M 9 28 L 12 28 L 12 42 L 9 42 Z M 9 28 "/>
<path style=" stroke:none;fill-rule:nonzero;fill:rgb(37.647059%,49.019608%,54.509804%);fill-opacity:1;" d="M 9 39 L 35 39 L 35 42 L 9 42 Z M 9 39 "/>
<path style=" stroke:none;fill-rule:nonzero;fill:rgb(37.647059%,49.019608%,54.509804%);fill-opacity:1;" d="M 32 28 L 35 28 L 35 42 L 32 42 Z M 15 34 L 29 34 L 29 37 L 15 37 Z M 15 34 "/>
<path style=" stroke:none;fill-rule:nonzero;fill:rgb(65.098039%,54.117647%,43.137255%);fill-opacity:1;" d="M 15.082031 28.257812 L 29 29.757812 L 28.679688 32.742188 L 14.757812 31.242188 Z M 15.082031 28.257812 "/>
<path style=" stroke:none;fill-rule:nonzero;fill:rgb(93.72549%,42.352941%,0%);fill-opacity:1;" d="M 36.871094 6 L 39.003906 19.835938 L 36.039062 20.292969 L 33.90625 6.457031 Z M 36.871094 6 "/>
<path style=" stroke:none;fill-rule:nonzero;fill:rgb(100%,59.607843%,0%);fill-opacity:1;" d="M 28.46875 8.238281 L 35.300781 20.453125 L 32.683594 21.917969 L 25.851562 9.699219 Z M 28.46875 8.238281 "/>
<path style=" stroke:none;fill-rule:nonzero;fill:rgb(82.745098%,54.509804%,15.686275%);fill-opacity:1;" d="M 20.5 14.550781 L 32 22.53125 L 30.289062 25 L 18.789062 17.015625 Z M 20.5 14.550781 "/>
<path style=" stroke:none;fill-rule:nonzero;fill:rgb(75.294118%,58.431373%,32.54902%);fill-opacity:1;" d="M 16.898438 21.21875 L 30.070312 25.957031 L 29.054688 28.78125 L 15.882812 24.042969 Z M 16.898438 21.21875 "/>
</g>
</svg>
